<?xml version="1.0" encoding="utf-8"?>
<!-- Generator: Adobe Illustrator 21.1.0, SVG Export Plug-In . SVG Version: 6.00 Build 0)  -->
<svg version="1.1" id="Ebene_1" xmlns="http://www.w3.org/2000/svg" xmlns:xlink="http://www.w3.org/1999/xlink" x="0px" y="0px"
	 viewBox="0 0 141.7 141.7" style="enable-background:new 0 0 141.7 141.7;" xml:space="preserve">
<style type="text/css">
	.st0{fill:#D50F2E;}
	.st1{fill:#EDEDED;}
	.st2{fill:#FFFFFF;}
</style>
<g>
	<g>
		<g>
			<g>
				<g>
					<g>
						<circle class="st0" cx="70.9" cy="70.9" r="66.9"/>
						<path class="st1" d="M70.8,141.7c-39,0-70.8-31.8-70.8-70.9S31.8,0,70.8,0s70.9,31.8,70.9,70.9S109.9,141.7,70.8,141.7z
							 M70.8,8C36.2,8,8,36.2,8,70.8s28.2,62.8,62.8,62.8s62.8-28.2,62.8-62.8S105.5,8,70.8,8z"/>
					</g>
				</g>
			</g>
		</g>
	</g>
	<g>
		<path class="st2" d="M99.7,25.1H79.9c-3.7,0-6.7,3-6.7,6.7v19.8c0,3.7,3,6.7,6.7,6.7h19.8c3.7,0,6.7-3,6.7-6.7V31.8
			C106.4,28.1,103.4,25.1,99.7,25.1z"/>
		<path class="st2" d="M99.7,61.9H79.9c-3.7,0-6.7,3-6.7,6.7v19.8c0,3.7,3,6.7,6.7,6.7h19.8c3.7,0,6.7-3,6.7-6.7V68.6
			C106.4,64.9,103.4,61.9,99.7,61.9z"/>
		<path class="st2" d="M62.9,61.9H43.1c-3.7,0-6.7,3-6.7,6.7v19.8c0,3.7,3,6.7,6.7,6.7h19.8c3.7,0,6.7-3,6.7-6.7V68.6
			C69.6,64.9,66.6,61.9,62.9,61.9z"/>
	</g>
	<g>
		<path class="st2" d="M45.1,110.8l3.5,5h-3.8l-3.1-4.4h-2.1v4.4h-3.1v-13.9h5.3c4.4,0,6,1.4,6,4.6
			C47.7,108.8,46.8,110.1,45.1,110.8z M41.9,104.5h-2.3v4.1h2.3c2.2,0,2.7-0.8,2.7-2.2C44.5,104.9,43.8,104.5,41.9,104.5z"/>
		<path class="st2" d="M49.8,108.7c0-4.1,3.2-7.2,7.3-7.2s7.3,3.1,7.3,7.2s-3.2,7.2-7.3,7.2C53,115.9,49.8,112.8,49.8,108.7z
			 M53,108.7c0,2.4,1.8,4.4,4.1,4.4s4.1-2,4.1-4.4c0-2.5-1.8-4.5-4.1-4.5S53,106.2,53,108.7z"/>
		<path class="st2" d="M67,115.7v-13.9h5.4c4,0,4.9,2.1,4.9,3.7c0,2.1-1.4,2.7-2,3c1.7,0.4,2.8,1.6,2.8,3.4c0,1.7-1,3.8-5,3.8H67z
			 M71.6,107.5c1.5,0,2.5-0.2,2.5-1.4c0-1.4-0.9-1.5-2.5-1.5h-1.5v3L71.6,107.5L71.6,107.5z M72.2,113.1c1.5,0,2.7-0.2,2.7-1.6
			s-1.1-1.6-3-1.6h-1.8v3.2H72.2z"/>
		<path class="st2" d="M79.8,108.7c0-4.1,3.2-7.2,7.3-7.2c4.1,0,7.3,3.1,7.3,7.2s-3.2,7.2-7.3,7.2C83,115.9,79.8,112.8,79.8,108.7z
			 M82.9,108.7c0,2.4,1.8,4.4,4.1,4.4c2.3,0,4.1-2,4.1-4.4c0-2.5-1.8-4.5-4.1-4.5C84.7,104.2,82.9,106.2,82.9,108.7z"/>
		<path class="st2" d="M102.4,115.7h-3.1v-11.2h-3.9v-2.7h10.9v2.7h-3.9V115.7z"/>
	</g>
</g>
</svg>
